<svg xmlns="http://www.w3.org/2000/svg" width="23" height="24">
  <g fill="currentColor" fill-rule="evenodd">
    <path d="M11.3340554 8.32888615c.5672861 0 1.0380184-.4707323 1.0380184-1.03805538V1.03805538C12.3720738.47073231 11.9013415 0 11.3340554 0 10.7546215 0 10.296.45862154 10.296 1.03805538v6.25277539c0 .57943385.4586215 1.03805538 1.0380554 1.03805538z"/>
    <path d="M20.7494031 6.47014154C19.4940185 4.57480615 17.8201477 3.16515692 15.7277908 2.29344c-.3703016-.15426462-.7604308.02422154-.9051693.37417846-.1449969.35021539.0131077.76999385.3620677.91753846 1.8479631.78180923 3.3073108 2.00374154 4.4058831 3.65752616 1.0985723 1.65352615 1.6537846 3.47649232 1.6537846 5.46812312 0 1.3398646-.2657723 2.63136-.7846892 3.8506707-.5191754 1.2190893-1.2312 2.2813662-2.1124062 3.1625723-.8812061.8812062-1.943483 1.5932308-3.1625723 2.1124062-1.2193107.5189169-2.5108061.7846523-3.8506338.7846523-1.33990155 0-2.63158155-.2657354-3.85067078-.7846523-1.21908924-.5191754-2.28136616-1.2312-3.16257231-2.1124062-.88120616-.881243-1.59352616-1.94352-2.11240616-3.1625723-.51913846-1.2193107-.7846523-2.5108061-.7846523-3.8506707 0-1.9677047.53099077-3.77830158 1.60537846-5.43204928C4.10352 5.62497231 5.54972308 4.38838154 7.35053538 3.60912c.3476677-.15038769.53409231-.54978462.37417847-.89305846-.16633847-.35745231-.57012923-.52611692-.91728-.37417846C4.75214769 3.24033231 3.11353846 4.64743385 1.88233846 6.5304c-1.2312 1.88296615-1.8468923 3.9472246-1.8468923 6.1804062 0 1.5330461.29667692 2.9957169.89331692 4.3816615.59844923 1.3903385 1.41533538 2.5921846 2.41421538 3.5973046 1.00482462 1.0109908 2.20796308 1.8247754 3.59726769 2.4142154 1.39908923.5935754 2.86076308.8930954 4.39377235.8930954 1.5330092 0 2.9926153-.30384 4.3816615-.8930954 1.3993108-.5938339 2.6042585-1.4032246 3.6093785-2.4142154.9989169-1.00512 1.8054277-2.2113231 2.4021046-3.5973046.5984861-1.3903015.9052061-2.8486154.9052061-4.3816615 0-2.269477-.6275815-4.34558774-1.8829661-6.24066466z"/>
  </g>
</svg>